<svg xmlns="http://www.w3.org/2000/svg" height="313.369" width="248.611">
    <g transform="matrix(1.33333 0 0 -1.33333 0 313.37)">
        <path d="M106.06 15.629c3.16-2.172 5.92-4.376 8.32-7.006.75-.824 1.324-1.714 1.458-2.844.147-1.236.152-2.452-1.263-2.972-1.328-.488-2.556-.23-3.452.928-2.098 2.71-4.465 5.137-7.269 7.132-2.975 2.115-6.339 3.371-9.772 4.488-.749.244-1.499.488-2.233.774-.853.333-1.392.87-1.258 1.908.132 1.02.667 1.583 1.637 1.84 1.588.42 3.044-.111 4.446-.69 1.025-.423 1.255-.233 1.235.837-.08 4.148-.102 8.296-.124 12.445-.004.662-.07.94-.903.798-7.418-1.266-14.91-1.598-22.419-1.622-1.045-.004-1.333-.294-1.32-1.33.056-4.243.024-8.488.024-13.007 2.518 1.345 5.035 1.54 7.58 1.559.394.003.79-.022 1.183-.054 1.163-.094 2.376-.166 2.396-1.772.02-1.48-1.315-2.902-2.786-2.9-3.114.002-6.084-.565-8.837-2.065-3.778-2.058-6.33-5.284-8.419-8.934-.54-.948-1.074-1.893-1.916-2.612-.42-.356-.883-.691-1.472-.445-.674.279-.493.909-.462 1.42.155 2.554 1.223 4.748 2.73 6.76 1.773 2.369 3.827 4.503 5.881 6.865-1.759.462-3.332.239-4.884-.208-3.205-.924-5.906-2.694-8.247-5.036-.788-.788-1.6-1.33-2.75-.767-1.497.734-1.81 2.307-.674 3.52 3.825 4.087 8.57 5.879 14.113 5.446 1.26-.1 1.591.15 1.553 1.42-.114 3.75-.118 7.507-.107 11.26.003.86-.209 1.162-1.126 1.259-10.458 1.095-20.65 3.299-30.243 7.749C17.54 48.65 5.836 63.56 1.805 84.163c-3.074 15.705-2.403 31.332 3.412 46.474 3.537 9.209 8.99 17.208 15.753 24.322 2.342 2.464 4.933 4.692 7.555 7.166-1.295.86-2.19 1.453-3.085 2.05-1.937 1.294-3.72 2.76-5.3 4.483-2.575 2.81-3.174 6.044-2.172 9.632.94 3.36 3.551 5.119 7.02 4.79.288-.026.575-.057 1.033-.103-1.079 2.516-2.169 4.875-2.844 7.394-.97 3.628-1.405 7.267-.433 10.958 1.565 5.95 6.972 8.239 12.333 5.22 1.011-.57 1.982-1.21 3.304-2.023 0 1.876-.042 3.44.007 5 .175 5.613.943 11.113 3.357 16.258 1.365 2.91 3.272 5.372 6.068 7.097 3.906 2.409 8.543.754 10.725-1.862 2.652-3.181 3.465-7.032 3.9-10.986.855-7.81.146-15.581-.75-23.34-.476-4.111-1.048-8.211-1.615-12.618 24.811 11.182 49.552 12.67 74.525-.07-.643 2.509-1.269 4.61-1.713 6.752-1.702 8.217-3.437 16.44-3.07 24.908.198 4.573.983 9.033 3.394 13.039.558.926 1.161 1.862 1.916 2.622 4.616 4.649 8.038 5.055 13.332.442 3.138-2.736 4.32-6.643 5.303-10.552.81-3.208 1.258-6.486 1.793-9.746.1-.607.23-1.208.391-2.04.996 1.5 1.886 2.784 3.174 3.737 3.4 2.513 7.95 1.913 10.524-1.451 1.905-2.49 2.525-5.434 2.784-8.457.42-4.904-.032-9.765-1.036-14.568-.23-1.105-.036-1.61 1.038-2.118 4.468-2.11 6.223-6.146 5.211-11.533-.944-5.024-3.222-9.5-5.659-13.911-1.729-3.13-1.73-3.115.633-5.842 7.905-9.122 12.332-19.676 13.528-31.716 1.876-18.885-4.698-34.882-16.446-49.121-8.303-10.065-18.719-17.653-29.748-24.422-10.989-6.744-22.658-11.948-35.257-14.92-2.98-.701-3.024-.697-2.813-3.713.268-3.841.626-7.674.916-11.513.062-.815.204-1.126 1.156-.812 7.27 2.397 13.457.13 19.036-4.567.804-.677 1.356-1.574 1.651-2.592.41-1.415-.172-2.667-1.433-3.175-1.377-.556-3.185-.001-3.645 1.334-1.227 3.563-4.074 4.749-7.405 5.228-1.903.274-3.826.438-6.093.33" fill="#7e7e7e"/>
        <path d="M37.386 160.52c-3.498 2.01-6.978 4.058-10.137 6.594-1.78 1.427-3.455 2.96-4.737 4.864-.934 1.388-1.481 2.902-1.245 4.612.24 1.725 1.358 2.713 3.1 2.78 2.019.074 3.728-.826 5.432-1.73.879-.467 1.738-1.1 2.67-.144.768.786.866 2.461.149 3.443-1.05 1.436-2.082 2.878-2.908 4.46-2.514 4.815-3.282 9.892-2.237 15.22.563 2.868 2.416 3.826 5.1 2.545 3.296-1.576 5.264-4.237 5.825-7.87.334-2.17.924-4.243 2.11-6.108 1.08-1.697 2.737-2.715 3.832-2.216 1.608.734 1.652 2.317 1.745 3.797a7.804 7.804 0 0 1-.646 3.617c-1.042 2.377-1.631 4.833-1.856 7.422-.51 5.843-.541 11.635 1.405 17.267.943 2.728 2.238 5.261 4.264 7.377 1.984 2.07 3.406 1.694 5.084-.493 1.357-1.77 1.806-3.939 2.144-6.087.975-6.19.68-12.405.2-18.612-.755-9.8-2.221-19.507-3.996-29.17-.017-.089.028-.189.073-.46l3.343 1.79c9.578 5.13 19.548 9.163 30.325 11 12.628 2.152 24.864.675 36.806-3.8 6.06-2.273 11.882-5.076 17.715-7.857.44-.21.884-.409 1.29-.595.443.358.21.686.125.995-2.374 8.514-4.363 17.114-5.392 25.9-.886 7.573-1.288 15.158.5 22.68.47 1.973 1.12 3.894 2.285 5.585 1.154 1.673 2.137 1.87 3.87.81 1.217-.742 2.054-1.838 2.72-3.067 1.943-3.578 2.708-7.502 3.263-11.468 1.01-7.21 1.25-14.45.658-21.715-.071-.884-.038-1.772.197-2.647.46-1.722 1.963-2.315 3.413-1.282 1.14.812 1.74 1.967 1.973 3.35.836 4.962 1.714 9.92 3.562 14.634.54 1.381 1.173 2.723 2.163 3.856 1.15 1.32 1.967 1.401 3.239.172 2.205-2.129 3.015-4.922 3.502-7.828 1.219-7.27-1.001-13.642-5.141-19.506-.54-.763-1.107-1.515-1.437-2.408-.375-1.017-.292-1.944.51-2.73.86-.843 1.843-1.077 2.986-.622.86.342 1.49.947 2.036 1.664 1.11 1.457 2.162 2.96 2.95 4.61.47.981.88.9 1.609.295 1.889-1.569 2.5-3.608 2.274-5.949-.393-4.069-2.121-7.685-4.027-11.205a296.183 296.183 0 0 0-6.231-10.933c-.664-1.112-.457-1.754.369-2.639 6.629-7.1 11.305-15.26 13.422-24.826 1.448-6.548.926-13.042-.286-19.529-2.816-15.078-10.473-27.498-21.448-37.895-17.693-16.76-38.862-26.757-62.69-31.304-6.835-1.304-13.752-1.153-20.67-.79-8.007.42-15.904 1.495-23.646 3.641-10.393 2.882-19.827 7.55-27.64 15.105-7.584 7.335-12.471 16.281-14.82 26.52-5.343 23.293-.206 44.01 15.64 61.993 4.387 4.98 9.159 9.551 14.266 13.783.372.306.839.54 1.047 1.104" fill="#fff"/>
        <path d="M117.494 97.99c-5.012-.433-11.981 4.27-14.465 10.993-2.018 5.463-2.201 11.075-1.59 16.769.386 3.59 1.099 7.108 2.639 10.413.48 1.032 1.004 2.039 1.814 2.858.433.439.967.8 1.585.534.723-.312.486-.987.377-1.553-.524-2.707-1.387-5.34-1.695-8.098-.686-6.145-.481-12.14 2.96-17.568 3.803-5.996 9.282-7.292 15.4-3.708 1.672.977 3.175 2.179 4.543 3.54 5.319 5.29 9.245 11.515 12.249 18.354.534 1.217.966 2.482 1.709 3.602.448.674.94 1.398 1.85 1.218.963-.194 1.024-1.16 1.11-1.905.288-2.426-.035-4.831-.525-7.203-1.668-8.086-4.895-15.414-10.874-21.272-4.552-4.462-10.06-6.838-17.087-6.974m-67.405 8.65c-9.615-.438-14.342 6.492-15.8 13.773-1.38 6.895-.357 13.652 1.308 20.354.463 1.864 1.065 3.692 1.607 5.535.154.525.303 1.202 1.025.954.666-.228.45-.865.32-1.405-1.11-4.573-1.754-9.205-1.594-13.92.13-3.833.71-7.593 2.747-10.928 2.232-3.654 5.315-6.163 9.845-5.97 3.024.127 5.597 1.613 7.78 3.613 6.202 5.677 10.324 12.625 12.375 20.792.28 1.12.337 2.697 1.804 2.685 1.44-.01 1.659-1.587 1.817-2.706 1.207-8.52-1.7-22.98-13.248-30.073-3.166-1.944-5.955-2.706-9.986-2.704m28.923-20.112c2.104-.072 4.11.214 6.122.402.898.083 1.77.068 2.647-.106.558-.111 1.076-.336 1.237-.92.18-.656-.22-1.154-.702-1.514-.387-.29-.847-.508-1.304-.677-3.513-1.31-7.09-2.408-10.775-3.12-1.491-.29-1.57-.425-.728-1.755.896-1.414 2.192-2.41 3.64-3.18 1.392-.736 2.847-1.351 4.264-2.04.376-.184.978-.321.819-.875-.145-.506-.73-.471-1.158-.4-4.445.742-8.333 2.45-10.755 6.504-.513.86-1.055 1.363-2.08 1.617-2.758.684-4.477 2.536-5.308 5.25-1.952 6.37 1.632 19.189 10.937 22.674 2.263.847 4.573 1.189 6.968.945.522-.054 1.279-.08 1.307-.711.03-.67-.713-.742-1.244-.75-3.971-.056-6.607-2.251-8.65-5.38-1.862-2.85-3.668-5.717-4.291-9.166-.738-4.081.718-6.077 4.849-6.565 1.426-.168 2.846-.277 4.205-.233" fill="#7e7e7e"/>
    </g>
</svg>